<svg width="280" height="410" viewBox="0 0 280 410" fill="none" xmlns="http://www.w3.org/2000/svg">
<rect width="280" height="410" rx="22" fill="#F3F4F6"/>
<path d="M101.492 265V145.727H141.793C151.111 145.727 158.76 147.319 164.739 150.503C170.718 153.648 175.144 157.977 178.018 163.49C180.891 169.003 182.327 175.274 182.327 182.301C182.327 189.329 180.891 195.56 178.018 200.996C175.144 206.431 170.738 210.702 164.797 213.808C158.857 216.875 151.267 218.409 142.026 218.409H109.412V205.364H141.56C147.928 205.364 153.053 204.432 156.935 202.568C160.857 200.705 163.691 198.064 165.438 194.648C167.224 191.192 168.117 187.077 168.117 182.301C168.117 177.526 167.224 173.352 165.438 169.78C163.652 166.208 160.798 163.451 156.877 161.51C152.956 159.53 147.772 158.54 141.327 158.54H115.935V265H101.492ZM157.634 211.42L186.986 265H170.214L141.327 211.42H157.634Z" fill="#111827"/>
</svg>
